<svg xmlns="http://www.w3.org/2000/svg" version="1.1" xmlns:xlink="http://www.w3.org/1999/xlink" xmlns:svgjs="http://svgjs.dev/svgjs" width="512" height="512"><svg width="512" height="512" viewBox="0 0 512 512" fill="none" xmlns="http://www.w3.org/2000/svg">
<rect width="512" height="512" fill="#443938"></rect>
<path d="M297.858 363.18L225.506 170.142L227.285 141.083C230.053 141.083 232.029 141.873 233.216 143.455C234.599 144.839 235.785 147.112 236.774 150.275L310.016 346.278L307.347 370C304.777 370 302.701 369.308 301.12 367.924C299.538 366.541 298.451 364.959 297.858 363.18ZM203.86 370C200.697 370 198.324 369.11 196.743 367.331C195.162 365.354 194.568 363.081 194.964 360.511L217.203 150.571C217.796 144.246 221.157 141.083 227.285 141.083L234.402 154.426L212.459 360.215C212.261 362.192 211.767 364.366 210.976 366.738C210.185 368.913 207.813 370 203.86 370ZM410.834 370C407.671 370 405.398 368.913 404.014 366.738C402.828 364.564 402.334 362.488 402.531 360.511L422.399 169.549L435.149 141.083C438.312 141.083 440.388 142.071 441.376 144.048C442.365 146.025 442.661 148.693 442.266 152.054L420.026 361.104C419.829 362.883 419.236 364.86 418.247 367.035C417.259 369.012 414.788 370 410.834 370ZM315.353 363.773C314.365 365.354 313.376 366.837 312.388 368.221C311.399 369.407 309.719 370 307.347 370L304.678 348.057L425.66 146.717C426.846 144.74 428.033 143.356 429.219 142.565C430.405 141.577 432.382 141.083 435.149 141.083L433.37 166.287L315.353 363.773Z" fill="#F6D9CF"></path>
<path d="M54.2208 333.824C56.1977 331.847 58.3722 331.155 60.7444 331.748C63.1166 332.144 65.2911 333.626 67.2679 336.196C69.6401 339.161 72.21 342.028 74.9776 344.795C77.9428 347.365 81.2046 349.54 84.7629 351.319C88.5189 352.9 92.8679 353.691 97.81 353.691C105.52 353.691 112.142 351.912 117.677 348.354C123.212 344.598 127.66 338.667 131.021 330.562C134.579 322.259 137.05 311.288 138.434 297.648L153.557 149.089C153.952 146.321 154.842 144.048 156.225 142.269C157.609 140.49 159.981 139.6 163.342 139.6C166.9 139.6 169.174 140.588 170.162 142.565C171.151 144.542 171.447 147.211 171.052 150.571L155.929 297.648C153.359 323.742 147.429 342.324 138.137 353.395C129.044 364.465 115.602 370 97.81 370C91.4842 370 85.6525 369.012 80.315 367.035C74.9776 365.058 70.1343 362.389 65.7853 359.029C61.634 355.47 57.7791 351.517 54.2208 347.168C52.6394 344.993 51.7498 342.72 51.5521 340.347C51.3544 337.975 52.244 335.801 54.2208 333.824Z" fill="#F6D9CF"></path>
</svg><style>@media (prefers-color-scheme: light) { :root { filter: none; } }
@media (prefers-color-scheme: dark) { :root { filter: none; } }
</style></svg>