<svg xmlns="http://www.w3.org/2000/svg" width="512" height="512" fill="none" viewBox="0 0 512 512"> <g clip-path="url(#a)"> <path fill="#6f744a" d="M0 0h512v512H0z"/> <g fill="#f9f6e5" clip-path="url(#b)" opacity=".05"> <path d="M369.26 126.36a17 17 0 0 0-2.05-1.73 16.6 16.6 0 0 0-13.38-2.69c-.83.2-1.9.39-2.47 1.05-.24.26-.19.8.23.86.85.14 1.67-.23 2.5-.37q1.32-.22 2.66-.23a15 15 0 0 1 11.1 4.7c.58.59.9 1.22 1.79 1.28.34.02.77-.28.81-.64.15-1-.53-1.57-1.2-2.24m8.35 5.19c-.15-.1-.32-.08-.49-.05q-.3.03-.52.25l-.19.21q-.18.23-.37.44-.24.3-.44.64l-.16.25a1 1 0 0 0-.12.7v.1c-.02.25.15.5.34.6a.7.7 0 0 0 .71 0h.03q.39-.08.63-.43l.15-.23q.17-.26.31-.52l.27-.55q.1-.2.18-.41c.06-.2.02-.4-.03-.59a.7.7 0 0 0-.29-.38zm33.87-52.61c.53.43 1.2.14 1.8 0q.9-.2 1.83-.32c1.22-.18 2.44-.35 3.68-.42.56-.03.56-.84 0-.88a20 20 0 0 0-5.74.33c-.53.1-1.4.15-1.66.72-.08.18-.1.43.08.57m-57.6 47.81a24 24 0 0 0-13.46 5.85c-.47.4-1.1.85-1.24 1.48-.06.27.15.48.43.43.6-.13 1.04-.69 1.47-1.08a23 23 0 0 1 5.06-3.46 25 25 0 0 1 7.84-2.47c.42-.05.32-.8-.11-.75m-17.38 9.66c-2.46 1.7-4.85 3.49-7.39 5.08a88 88 0 0 1-5.82 3.32c-.61.31-1.33.56-1.84 1.02-.32.3.03.72.4.68.71-.13 1.4-.6 2.05-.93q1.02-.51 2.02-1.07a87 87 0 0 0 3.82-2.24 49 49 0 0 0 7.2-5.31c.28-.28-.1-.77-.42-.55zm39.12-11.75c-.03.35-.04.83.1 1.14.13.25.44.22.63.08.33-.26.46-.89.5-1.29a8.6 8.6 0 0 0-.52-3.89 9 9 0 0 0-3.22-4.16c-.43-.3-.94.4-.55.71a8 8 0 0 1 2.67 3.88q.37 1.15.43 2.32.02.6-.05 1.2zm47.19-2.95a12 12 0 0 0-6.98-6.71c-.46-.17-.89-.16-1.37-.15-.2 0-.32.31-.11.43.42.22.79.46 1.24.62q.6.22 1.18.5 1.17.6 2.17 1.42a11.4 11.4 0 0 1 3.19 4.2c.17.38.85.1.69-.3zm-61.85-36.02a123 123 0 0 0 7.52-35.95c.02-.41-.6-.4-.63 0a129 129 0 0 1-8.08 35.61c-.3.74.91 1.08 1.18.33m-14.99-7.91q.85 1.2 1.51 2.48c.38.76.56 1.72 1.26 2.23.27.2.71 0 .79-.32.21-.91-.5-1.96-.93-2.73a19 19 0 0 0-6.41-6.94c-3.74-2.42-8.93-3.74-13.3-2.5-.28.08-.22.52.07.51 2.3-.05 4.53-.08 6.8.5a18 18 0 0 1 5.81 2.55 18 18 0 0 1 4.4 4.22m37.81-34.08q.34.59.59 1.22l.22.62c.09.26.15.5.39.66.18.11.42.03.52-.13.15-.28.06-.57-.01-.85a9 9 0 0 0-.92-2.02A8 8 0 0 0 382.5 41c-.3-.22-.65.27-.4.51q.99.96 1.66 2.15zm-46.38 64.5a50 50 0 0 1-4.62 3.67c-.24.16-.53.3-.73.5-.19.22-.34.52-.5.77-.18.24.13.53.37.47.3-.06.64-.08.92-.21.3-.14.59-.39.85-.58q.82-.56 1.59-1.14a66 66 0 0 0 3.05-2.4 40 40 0 0 0 5.6-5.62c.54-.65-.35-1.57-.94-.94a95 95 0 0 1-5.6 5.48M126.3 299.01c.12 0 .12-.19 0-.19s-.12.2 0 .2m6.12-2.9c-.93-.44-1.66.18-2.42.7a16.4 16.4 0 0 0-7.15 11.36q-.23 1.5-.16 3c.03.84 0 1.91.52 2.6.27.36.78.32.95-.12.29-.8.05-1.79.08-2.61q.05-1.35.3-2.7a15.2 15.2 0 0 1 6.63-9.76c.63-.4 1.52-.66 1.65-1.47.05-.35-.03-.8-.4-.97zm4.44-5.12.36.45q.2.24.42.42l.21.21a1 1 0 0 0 .7.29h.05a1 1 0 0 0 .37 0q.16-.05.3-.18c.2-.18.23-.43.19-.67l-.03-.12v-.07a1 1 0 0 0-.12-.37l-.16-.21-.22-.2-.21-.2q-.17-.18-.37-.31-.24-.16-.47-.34l-.23-.17q-.28-.13-.57-.1a.65.65 0 0 0-.63.63q-.01.31.12.56.14.2.29.37zm-45.99-44.57c.18.13.43.06.57-.07.48-.43.28-1.26.27-1.82q0-.9.03-1.77c.06-1.22.1-2.43.28-3.64.08-.55-.69-.79-.84-.23-.33 1.24-.6 2.52-.72 3.81q-.06.98-.06 1.98c0 .61-.11 1.36.46 1.75zm37.29 65.7c.02-.5-.73-.5-.78 0a24 24 0 0 0 2.22 12.39q.48 1.01 1.04 1.98c.3.51.6 1.1 1.14 1.37.21.1.54-.02.51-.3-.04-.6-.42-1.08-.74-1.6q-.54-.9-1-1.85-.9-1.84-1.46-3.8a25 25 0 0 1-.95-8.18zm9.05 27.17a78 78 0 0 1 2.1 6.22c.2.66.31 1.38.65 1.98.19.35.74.19.73-.2 0-.73-.3-1.47-.5-2.18l-.62-2.05q-.7-2.18-1.53-4.31a48 48 0 0 0-3.86-8.09c-.23-.38-.77-.04-.6.35 1.22 2.76 2.54 5.47 3.63 8.29zm-7.47-50.17a8.9 8.9 0 0 0-8.7 2.1c-.43.4.2 1 .64.64a8 8 0 0 1 4.29-1.84q1.16-.15 2.33.02.6.11 1.18.28c.33.09.77.19 1.1.1a.4.4 0 0 0 .23-.58c-.2-.36-.7-.6-1.07-.73zm5.7-45.69a12 12 0 0 0-7.82 5.52 4 4 0 0 0-.43 1.35c-.03.2.23.42.38.23.3-.35.6-.66.83-1.05q.32-.55.71-1.06a11.6 11.6 0 0 1 6.54-4.25c.48-.1.28-.83-.2-.73zM54.4 283.73a129 129 0 0 1 33.43 14.68c.67.43 1.3-.66.62-1.06a124 124 0 0 0-33.89-14.22c-.38-.1-.54.5-.16.6m22.92 27.05q1.42-.72 2.95-1.17c.8-.24 2.08-.24 2.65-.86.22-.25.22-.67-.1-.85-.86-.46-2.19.14-3.05.41a19 19 0 0 0-8.2 5.27c-2.9 3.17-5.05 7.85-4.67 12.22.03.28.46.38.5.07.36-2.13.72-4.21 1.61-6.2a17.8 17.8 0 0 1 8.3-8.89zM52.83 266.6l.71-.1c.24-.04.47-.04.64-.22.14-.15.16-.4 0-.54-.38-.34-1.1-.15-1.56-.07q-.72.15-1.41.4-1.43.55-2.53 1.59c-.28.25.1.72.38.5a10 10 0 0 1 3.77-1.55m53.19 58.09a51 51 0 0 1 2.76 5.27c.27.6.54.95.99 1.43.18.2.55.05.54-.22 0-.31.04-.64-.04-.95s-.23-.62-.37-.92q-.41-.94-.84-1.84a92 92 0 0 0-1.78-3.5 42 42 0 0 0-4.52-6.62c-.49-.58-1.49.2-1.05.81a97 97 0 0 1 4.32 6.54"/> <path d="M368.3 138.22c-.84.7.26 2.11 1.12 1.55q.17.06.34.07c4.7.48 9.48-1.29 12.85-4.56a17.2 17.2 0 0 0 4.94-9.81c1.8.16 3.81-.5 5.6-.74a107 107 0 0 1 16.78-.83c3.02.1 6.58.4 8.92 2.55a6 6 0 0 1 1.87 3.62c.19 1.43-.32 2.3-.87 3.54-.3.64.02 1.38.56 1.63.1.71.62 1.3 1.5 1.2 9.44-1.1 13.02-13.4 13.2-21.38.21-9.37-4.73-18.58-13.77-21.92a32 32 0 0 0-5.3-1.42c1.6-.73 3.16-1.62 4.67-2.51a70 70 0 0 1 21.12 4.47q.2.07.39.07a25 25 0 0 0 5.94 4.9c.8.46 1.63.93 2.57.8.95-.13 1.78-.84 1.82-1.83.03-.96-.64-1.74-1.32-2.34a17 17 0 0 0-4.47-2.85c-.85-.36-2.03-.88-3.12-.95q-.63-.19-1.3-.23-.19 0-.36.07a71 71 0 0 0-17.85-4.13q7.64-4.3 15.25-8.66c1.67-.95.54-3.82-1.32-3.13-5.01 1.8-8.56-3.3-12.1-5.92-3.11-2.32-6.75-3.23-10.59-3.25-7.98-.04-16.22 2.46-23.48 5.71q.47-1.05.88-2.1a112 112 0 0 1 14.38-7.75q.25-.12.4-.28l.3-.13a58 58 0 0 0 9.7-4.85c.7-.44.46-1.68-.45-1.63q-.79.04-1.57.14a1 1 0 0 0-.7-.11q-1.44.34-2.84.81l-.09.02a19 19 0 0 0-3.55 1.48q-.35.18-.51.37-.43.23-.82.48c-.4.24-.84.5-1.23.8l-.6.26c-.42.19-.55.73-.42 1.16q-5.58 2.58-10.9 5.74.28-1.08.47-2.17a137 137 0 0 1 22.56-13c.63.11 1.3-.12 1.9-.3 2.77-.76 5.62-1.67 8.02-3.3.61-.41 1.3-.86 1.7-1.52.38-.7.3-1.59-.4-2.06-.67-.45-1.49-.26-2.24-.13a19 19 0 0 0-3.82 1.06c-1.3.3-2.57.73-3.74 1.38-1.06.6-2.56 1.58-2.75 2.9h-.01a128 128 0 0 0-20.76 11.71q.34-4.03-.3-8.06c-1.05-6.48-4.24-13.35-10-16.9a13.4 13.4 0 0 0-17.5 2.61 46 46 0 0 0-4.4 6.25 20 20 0 0 0-1.85-3.34 22 22 0 0 0-5-5.35 20.4 20.4 0 0 0-14.5-4.02 20.5 20.5 0 0 0-13.54 7.06 20 20 0 0 0-3.66 6.7c-.7 2.14-1.48 5.18-.77 7.39.29.9 1.55.9 1.83 0l.03-.1q.32 0 .56-.32c2.87-4.52 8.04-7.5 13.35-5.5a9.7 9.7 0 0 1 5.5 5.22c.65 1.6.82 3.2.65 4.82a10.5 10.5 0 0 0-6.07-3.58c-3.64-.59-6.99 1.16-9.57 3.6a35 35 0 0 0-6.6 9.18 36 36 0 0 0-2.28 5.48c-.32.98-.91 2.37-1.08 3.63l-.55.4c-1.04.82.34 2.58 1.41 1.84a14 14 0 0 1 10.69-2.21c4.54 6.55-1.9 15.57-5.59 21.15-3.63 5.5-7.78 10.63-11.78 15.87-7.13 9.34-17.74 22.66-14.76 35.27q.13.45.4.72a75 75 0 0 0-8.95 6.5c-13.2 11.18-21.87 26.02-26.57 42.2q-.42-1.95-.95-3.92a232 232 0 0 0-5.6-17.37c-4.28-12-8.52-24.16-8.57-37.05 0-1.26-1.84-1.87-2.46-.67-11.7 23.25-5.77 51.67 14.54 68.04q.38.3.8.32a116 116 0 0 0 1.46 49.34c1.87 7.46 4.35 14.7 7.3 21.71-11.45-9.76-28.96-13.14-41.79-20.18-1.06-.58-2.2.59-1.63 1.63 10.62 19.61 30.34 33.24 52.33 36.55 13.72 24.18 32.88 45.58 52.68 64.66-20.57-7.6-44.92-6.09-64.93-15.5-1.06-.5-2.61.62-1.8 1.8 18.34 26.2 51.8 37.85 82.4 28.22l1.5 1.34 2.34 2.08q3.52 3.1 7.08 6.17l1.5 1.3 6.48 5.51 3.42 2.88 4.06 3.41 10.48 8.74c-23.58-.91-47.18.49-70.78 1.58a2 2 0 0 0-.22-.38c-6.28-7.55-15.19-13.74-23.67-18.54a105 105 0 0 0-28.02-10.9c-1.27-.29-2.06 1.17-1.24 2.12 7.35 8.34 15.1 16.61 24.7 22.4a57 57 0 0 0 13.34 5.92c-15.52.55-31.05.71-46.56-.25-8.3-.52-16.68-1.4-25-2.7a.8.8 0 0 0-.59-.53l-1.84-.55c-1.75-4.6-4.28-9.1-6.47-13.41a137 137 0 0 0-8.74-14.98c-5.84-8.53-12.98-16.14-21.8-21.6-.82-.52-1.96.14-1.94 1.12a53.9 53.9 0 0 0 31.92 48.29c-28.12-5.59-55.2-16.5-76.63-35.77 9.82-7.31 3.89-24 .33-33.28-2.64-6.87-6.27-13.32-8.89-20.19-1.3-3.41-2.12-7.22-.89-10.78 1.37-3.9 5.44-6.06 9.11-4.42q.32.3.75.4c.56.95 1.86.25 1.72-.7q.08-.15.12-.29c1.4-4.62.58-9.8-2.15-13.8a17.4 17.4 0 0 0-8.54-6.5c.48-1.68.23-3.75.33-5.48q.17-2.99.5-5.96a94 94 0 0 1 1.99-11.38c.71-2.88 1.76-6.29 4.42-7.96a6 6 0 0 1 3.79-.92c1.4.14 2.16.88 3.25 1.65.51.37 1.2.1 1.53-.4.72-.03 1.43-.53 1.5-1.53.7-9.33-11.22-15.28-18.82-16.77-9.27-1.81-19.18 1.35-24.06 9.81a34 34 0 0 0-2.13 4.5c-.42-1.72-1-3.43-1.6-5.1a70 70 0 0 1 8.34-19.73q.14-.22.15-.41a25 25 0 0 0 5.8-4.74c.64-.72 1.33-1.48 1.45-2.49.1-.92-.41-1.91-1.35-2.18s-1.83.2-2.56.75a17 17 0 0 0-4.91 5.93q-.16.34-.29.71-.34.61-.52 1.3a1 1 0 0 0 0 .44 71 71 0 0 0-7.44 16.78l-.12-.36q-2.71-8.1-5.47-16.16c-.73-2.14-3.62-1.24-3.31.91.81 5.53-6.22 8.16-9.28 11.54a18 18 0 0 0-4.13 8.94c-1.42 7.78-.62 16.2 1.18 23.88q-.91-.66-1.87-1.24a114 114 0 0 1-4.89-15.55q-.06-.25-.2-.43l-.15-.78a56 56 0 0 0-2.83-10.01c-.15-.36-.44-.65-.85-.65-.35 0-.8.28-.84.65q-.1.79-.17 1.56a.8.8 0 0 0-.26.67q.05 1.54.29 3.07 0 .1.03.2l.03.2q.13 1.1.39 2.17c.13.59.23 1.2.55 1.69.25.78.52 1.6.89 2.32l.13.6c.14.59.62.77 1.07.7q1.48 5.98 3.58 11.81-1.01-.47-2.04-.88a136 136 0 0 1-8.4-24.38l-.1-.26c.19-.53.13-1.12.1-1.7-.24-2.98-.6-6-1.78-8.77-.47-1.1-1.49-3.02-2.98-2.1-.7.43-.77 1.23-.8 1.98a19 19 0 0 0 .3 4.36c.05 1.36.23 2.74.68 4.02.39 1.15 1.03 2.72 2.28 3.17a129 129 0 0 0 7.56 22.6 32 32 0 0 0-7.98-1.23c-6.57-.17-14.1 1.63-18.6 6.75-4.53 5.17-4.82 12.1-.64 17.53a44 44 0 0 0 5.24 5.49c-1.46.32-2.94.93-4.05 1.41A20.6 20.6 0 0 0 32 307a20.5 20.5 0 0 0 4.88 14.59 19 19 0 0 0 5.52 4.37c1.93 1.04 4.68 2.38 6.93 2.1.85-.1 1.38-1.26.47-1.77l-.15-.08c.03-.2 0-.42-.17-.56-3.87-3.66-5.88-9.3-2.93-14.14a9.6 9.6 0 0 1 6.04-4.4 9.6 9.6 0 0 1 5 .2c-3.54 2.08-5.74 5.83-5.1 10.02.73 4.75 4.44 8.76 7.88 11.85a37 37 0 0 0 9.2 6.13l1.09.51.3.65c.7 1.37 2.6.17 2.02-1.17a13.6 13.6 0 0 1-.08-10.68c7.43-3.26 15.17 4.95 20.02 9.73 4.67 4.62 8.9 9.65 13.27 14.54 4.37 4.9 8.91 9.69 14.13 13.73 5.02 3.9 10.79 7.53 17.38 7.23q.07 0 .13-.02 4.18 4.08 8.7 7.75a140 140 0 0 0 34.15 20.07l-1.4-.17q-8.83-1.12-17.73-1.37c-11.77-.33-23.51.55-35.13 2.5-1.02.18-1.24 1.6-.59 2.25 20.54 20.5 53.22 22.22 75.92 4.2l.12-.12c17.96 5 36.73 7.51 55.05 8.48q5.96.32 11.92.43c-17.7 5.13-33.2 21.1-52.58 15.71-1.25-.34-1.95 1.16-1.2 2.06 7.84 9.3 21.15 13.44 32.82 9.75 6.69-2.11 12.3-6.48 17.68-10.82q10.19-8.25 20.33-16.52l.13-.13c11.24-.15 22.5-.6 33.75-1.08a137 137 0 0 0-6.76 3.43A106 106 0 0 0 285.28 438c-12.54 8.83-25.09 16.98-39.38 23a172 172 0 0 1-48 12.44 1 1 0 0 0-.32-.22c-1.37-.43-2.94-.24-4.37-.27-1.59-.03-3.16-.08-4.75-.06l-8.94.1-8.1.1c-1.73.03-3.74.56-3.82 2.66-.07 1.93 1.52 3.38 2.91 4.44 1.71 1.3 3.64 2.3 5.68 3 8.28 2.81 17.3-.3 22.5-7.2l.03-.05a174 174 0 0 0 48.01-12.58c11.08-4.67 22.35-10.53 32.33-17.79a98 98 0 0 0-13.4 24.79q-.15.48.1.77-.2-.01-.39.04c-1.23.44-2.01 1.48-2.85 2.44q-1.3 1.51-2.48 3.1a47 47 0 0 0-4.08 6.48c-1.96 3.77-3.26 8.28-1.26 12.31.81 1.63 2.3 3.19 4.2 3.37 2.16.22 3.29-1.53 4.34-3.12a30.4 30.4 0 0 0 4-24.25l-.1-.22q.22-.14.36-.43a105 105 0 0 1 27.6-38.68 102 102 0 0 1 19.38-13.47c4.97-2.66 10.07-4.54 15.27-6.32 20.57-.86 41.14-1.52 61.68-.26a3230 3230 0 0 1 13.35 11.16q3.6 3.04 7.17 6.12l1.91 1.64 5.34 4.63 2.35 2.08q2.55 2.26 5.1 4.56l2.18 1.97q3.55 3.24 7.06 6.52 4.92 4.65 9.75 9.44c-26.07-11.95-55.6-16.07-84.17-10.88a1 1 0 0 0-.25-.15q-.71-.24-1.42-.38c-.28-.2-.64-.3-.98-.17a23 23 0 0 0-9.1.71c-3.3.88-6.66 2.3-9.48 4.23-1.13.76-2.11 2-1.55 3.43.5 1.27 1.91 1.86 3.17 2.08 7.25 1.26 13.15-3.96 17.96-8.63l1.22.12q.37.03.53-.22a148.6 148.6 0 0 1 72.94 7.1 138 138 0 0 1 14.83 6.45c24.94 25.41 47.09 54.27 59.63 87.76a192 192 0 0 1 5 15.22q.48 1.72.92 3.48.26 1.01.5 2.03a82 82 0 0 1 .93 4.17l.15.73q.3 1.54.58 3.1l.06.39q.28 1.63.52 3.28l.03.21q.24 1.68.43 3.36l.02.15q.18 1.66.3 3.34 0 .1.03.2.12 1.62.2 3.23.01.49.04.97a82 82 0 0 1-1.52 19.22q2.97.53 5.9 1.17.32-1.57.57-3.13.54-3.63.8-7.28v.15l.26-.88a89 89 0 0 0 2.35-11.02c6-9.62 10.6-20.04 13.4-30.87 10.14-39.17-1.53-82.67-30.24-111.21q-7.1-7.04-15.1-12.78c-18.04-28.08-41.46-52.78-69.09-71.4q.15-.1.25-.27.48-.11.9-.33c.64-.3.52-1.45-.2-1.57a7 7 0 0 0-1.52-.05 36.6 36.6 0 0 0-19.33-14.47c-.69-.22-1.22.47-1.1 1.11a19.2 19.2 0 0 0 8.15 11.93 20 20 0 0 0 6.77 3.01c1.46.34 3.31.7 5 .58l.09.07a286 286 0 0 1 53.3 50.92 265 265 0 0 1 13.08 17.89c-26.05-17.5-58.01-25.86-89-28.82q-4.21-.39-8.42-.67l-9.65-7.98a1 1 0 0 0-.2-.27 64 64 0 0 1-6.29-5.65c.77.01 1.54-.47 1.55-1.45.13-25-4.31-49.83-13.12-73.23-.4-1.1-2.07-1.59-2.7-.35a65.4 65.4 0 0 0 6.09 68.74l-1.39-1.16-3.06-2.58a880 880 0 0 1-7.95-6.82q-.72-.61-1.42-1.24-3.46-3-6.87-6.06l-2.25-2.01-2.19-2.01c.18-.36.01-.89-.5-.89a.6.6 0 0 0-.34.12q-1.85-1.67-3.67-3.36a114 114 0 0 1-8.64-29.59c-5.45-36.54 6.3-75.66 32.06-102.3 1.34.44 2.77-.23 4.1-.67a31 31 0 0 0 4.7-2.07c2.94-1.57 5.7-3.5 8.18-5.7a42 42 0 0 0 11.5-16.64c.35-.93-.53-1.66-1.32-1.75-6.54-.74-12.84 2.57-17.22 7.23a39 39 0 0 0-5.84 8.35 80 80 0 0 0-2.34 4.78c-.24.52-.54 1.08-.8 1.65l-.68.5c-.96.69-1.9 1.3-2.03 2.55q0 .42.32.72a116 116 0 0 0-18.86 25.08 123 123 0 0 0-8.19 18.02 94 94 0 0 0-3.12-22.65 95 95 0 0 0-5.12-14.34c-1.7-3.77-3.6-8.1-6.26-11.45a1.2 1.2 0 0 0-.21-1.42h-.01l-.04-.17-.23-.46c.73-8.72-4.53-16.92-12.34-20.63-.44-.21-1.08-.24-1.42.19-3.2 3.99-2.4 9.43.45 13.4 1.5 2.1 3.4 3.84 5.43 5.43q1.62 1.27 3.34 2.4c.87.57 1.82 1.28 2.82 1.68 1.83 4.02 4.4 7.77 6.21 11.81a91 91 0 0 1 7.87 36.76c0 2.32-.43 4.76.03 7.03q.02.12.08.21c-7.29 25.33-6.56 52.9 2.83 77.62a381 381 0 0 1-28.68-30.1q-.84-1.43-1.56-2.88l.13-.11c.51-.5.38-1.21-.03-1.64 8.64-18.5 12.82-39.58 13.63-59.83.05-1.1-1.51-1.82-2.27-.93-12.89 15.15-22.9 37.22-16.33 56.57l-.06.82c-15.62-20.02-28.15-42.24-33.73-67.09a109 109 0 0 1-2.57-20.52q.23-1.35.56-2.7l.04-.01a94 94 0 0 0 28.12-22.47c7.02-8.44 11.89-18.5 12.87-29.5.08-.91-1.09-1.53-1.82-1.06a110 110 0 0 0-27.93 26.56c-4.45 6.07-9.07 13.16-11.78 20.67 1.34-28.04 13.49-55.64 37.9-70.88 8.95 7.45 23.63-1.12 31.84-6.18 6.1-3.77 11.65-8.27 17.63-12.22 3.09-2.04 6.57-3.8 10.39-3.61 4.23.21 8.05 3.77 7.1 8.01m53.12 226.16c-.83-.53-1.74-.96-2.57-1.43l-4.07-2.3q-2.12-1.21-4.23-2.38c-.85-.47-1.8-1.15-2.76-1.56q-.6-1.17-1.05-2.4a34.3 34.3 0 0 1 14.7 10.08zm-1.56 1.74a18.8 18.8 0 0 1-10.09-6.4l.08.05q2.06 1.12 4.15 2.22l4.28 2.27c1.3.7 2.63 1.63 4.08 1.94q.26.04.43-.13l.38.51h-.04q-1.66-.07-3.26-.45zm-45.4-153.3c3.5-3.97 8.35-6.9 13.65-7.03a40 40 0 0 1-17.8 19.32q-1.77.93-3.6 1.74l1.36-1.02a85 85 0 0 0 5.27-4.43q2.61-2.38 5.07-4.93c.8-.85 1.64-1.7 2.4-2.6.7-.8 1.6-1.76 2.03-2.75.29-.68-.32-1.47-1.06-1.07-.95.52-1.8 1.46-2.58 2.2-.86.8-1.69 1.66-2.56 2.46a109 109 0 0 1-5.17 4.56l-2.43 1.97.32-.67a37 37 0 0 1 5.1-7.75m-57.42 4q-1.27-2.27-2.69-4.46a93 93 0 0 0-4.72-6.7c-.37-.48-.73-1.02-1.15-1.5 4.44 2.7 7.51 7.53 8.56 12.65m-3.17 1.35a28 28 0 0 1-4.84-4.39c-1.89-2.24-3.12-5.3-2.7-8.16.4.55.9 1.05 1.33 1.58q.9 1.08 1.74 2.17a88 88 0 0 1 3.1 4.26q2.18 3.16 4.14 6.46a46 46 0 0 1-2.78-1.91zm50.76-89.44c-6.52-2.48-12.89 1.43-18.04 5.1-6.61 4.73-13.23 9.52-20.47 13.28-4.87 2.53-11.88 5.94-17.77 5.14 1.34-.33 2.68-.89 3.93-1.57 4.17-2.27 7.97-5.28 11.57-8.36 3.98-3.43 7.76-7.13 12.06-10.17 4.04-2.87 8.24-4.59 12.74-6.56.86-.38.17-1.51-.58-1.4-4.18.64-8.3 3.18-11.74 5.5a120 120 0 0 0-9.85 7.6c-3.64 3.1-7.22 6.29-11.13 9.02-3.27 2.29-7.7 5.34-11.8 4.04l-.18-.14c9.98-3.65 16.8-12.08 23.92-19.62 8.59-9.08 19.7-17.05 32.61-11.94.36.14.59-.43.26-.6-9.86-5.57-21.5.47-29.02 7.17-8.59 7.63-15.35 18-25.93 22.87 11.38-9.28 19.06-22.62 31.66-30.46 7.48-4.64 17.68-7.43 24.9-.82 4.33 3.97 10.83 12.69 8.59 19.04a8.9 8.9 0 0 0-5.73-7.11zm-8.03-17.68-.85-.25c.99-2.27 2.89-3.8 4.98-5.03a54 54 0 0 0-4.13 5.28m27.82 14.08c-.6 6.86-6 12.3-12.67 12.8 3.28-5.4-.06-12.6-3.61-17.62a29 29 0 0 0-5.6-6.05l.57.15c2.12.56 4.35.9 6.54.92q1.06 0 2.12-.1a14 14 0 0 1 5.07 6.16 12 12 0 0 1 .6 7c-.18.82-.5 1.45-.13 2.25.21.47.9.57 1.3.34.87-.5.97-1.63 1.12-2.54a14.4 14.4 0 0 0-.98-8 12.7 12.7 0 0 0-4.65-5.5q.73-.1 1.44-.24c1.98-.37 4-.65 5.69.67 2.81 2.22 3.47 6.41 3.17 9.76zm29.18-2.7c-4.38-.74-8.98-.6-13.4-.38q-3.58.17-7.13.6c-1.8.21-3.93.27-5.72.84a15 15 0 0 0-2.1-7.72 47 47 0 0 1 12.06-1.7c4.49-.05 8.86.74 13.27 1.5.27.05.36-.31.1-.42-8.08-3.32-17.94-2.8-26.27-.5q-.29-.37-.64-.72a7.6 7.6 0 0 0-5.07-2.18q-.96-.02-1.9.12a53.2 53.2 0 0 1 32.25-5.63c6.43.96 12.58 3.36 15.6 9.51 1.46 3 1.9 6.46 1.21 9.73-.48 2.33-1.58 4.21-2.76 6.13a9 9 0 0 0-1-3.85c-1.65-3.19-5.12-4.77-8.52-5.35zm17.22-11.94c1.47 6.65.16 16.2-5.14 21.18 2.75-4.1 3.23-10.05 1.83-14.5-2-6.28-7.1-10.41-13.34-12.15-14.45-4.05-30.87-.63-43.28 7.46q-.26.19-.4.43-1.84.13-3.69.03l.11-.09a55 55 0 0 1 6.79-4.63 69 69 0 0 1 9.95-4.68c.38-.15.24-.75-.17-.62a51 51 0 0 0-10.1 4.44 59 59 0 0 0-4.82 3.07c-1.04.73-2.25 1.5-3.25 2.38l-.58-.06c12.17-12.98 29.89-18.47 47.48-17.08 9.06.72 16.54 5.55 18.58 14.8zM388.68 94c-10.1 2.96-19.55 8.58-26.14 16.89l-.15.22-1.43-.38-1.45-.44a56 56 0 0 1 7.92-8.79q3.9-1.83 7.87-3.46a131 131 0 0 1 20.69-6.69 91 91 0 0 1 16.9-2.25q-1.58.74-3.2 1.43-.38.16-.56.49c-7.02-.14-14.3 1.17-20.45 2.97m31.47-23.82c4.66 1.45 8.03 6.41 12.4 8.32-4.96 2.85-9.9 5.72-14.98 8.32a95 95 0 0 0-24.58 2.98 136 136 0 0 0-18.74 6.33 76 76 0 0 1 4.99-3.18c8.79-5.15 18.41-8.3 27.65-12.51.54-.25.14-1.05-.39-.92-14.18 3.6-29.13 10.04-40.34 20.11a58 58 0 0 0-4.67 2.21c13.37-14.1 29.85-24.9 49.78-26.92.27-.03.27-.42 0-.42-17.57.56-32.92 9.48-45.54 21.23 7.63-8.89 16.8-16.31 27.76-21.06 7.55-3.28 18.47-7.03 26.67-4.48zm-33.28 4.24q-1.64.88-3.22 1.84 1.62-1.25 3.28-2.46-.1.32-.06.62m2.25-5.06q-4.8 3.17-9.29 6.81l.75-.74q4.44-4.15 9.2-7.84-.3.9-.66 1.77m-13.85-31.9c8.14-1.42 13.44 6.84 15.18 13.6a29 29 0 0 1 .34 12.73 135 135 0 0 0-11.87 9.99q-4.22 4-8.07 8.36l.22-.49c2.14-4.93 3.96-10 5.25-15.22 1.17-4.78 2.7-10.37 2.33-15.32-.06-.88-1.24-1.05-1.53-.22-1.61 4.92-2.1 10.27-3.59 15.27a121 121 0 0 1-5.4 14.86 107 107 0 0 1-7.47 13.84c-1.42 2.23-3.08 4.3-4.73 6.4q.5-2.8.62-5.64l.24-.67q.42-1.13.9-2.25l1.91-4.44c.22-.52-.46-.96-.78-.45a34 34 0 0 0-2.28 4.34c-.19-4-.97-7.95-2.37-11.72l-.05-.14a.7.7 0 0 0 .15-.44c-.18-8.73 2.12-17.1 6.2-24.8 1.83-3.46 3.94-6.78 6.15-10.04 2.15-3.17 4.6-6.85 8.66-7.56zm-35.18 7.2c-4.95-1.9-11.14-.2-14.1 4.1q.19-.97.54-1.9a20 20 0 0 1 3.54-5.73 17.4 17.4 0 0 1 11.76-5.87A17 17 0 0 1 358 43.73c.91 1.56 1.24 3.51 2.3 4.94q-.59 1-1.16 2.04a27 27 0 0 0-3.96-6.32 26 26 0 0 0-7.95-6.52c-.23-.12-.4.2-.2.34a33 33 0 0 1 7.24 6.77 29 29 0 0 1 3.8 6.44l.3.74a74 74 0 0 0-2.8 5.95l-.37.91q-.44-3.65-1.8-7.07c-1.89-4.67-5.04-9.42-9.54-11.9-.4-.22-.82.3-.5.63 3.49 3.61 6.54 7.35 8.18 12.17a28 28 0 0 1 1.43 10.92c-.09 1.13-.4 2.27-.25 3.4l.02.05q-.86 4.2-.66 8.5a25 25 0 0 0-2.85-4.3c-.1-3.47-.34-7.06-1.69-10.27a12.64 12.64 0 0 0-7.45-16.49zm-17.71 29.4q.4-1.11.87-2.19a49 49 0 0 1 2.82-5.37c2.04-3.39 4.65-7.01 8.22-8.9 3.53-1.88 7.23-.44 9.39 2.75q.6.9 1.02 1.88a10.65 10.65 0 0 0-12.59 1.83c-.24.25.1.59.36.37a10.2 10.2 0 0 1 12.86-.4c.4 1.42.6 2.9.7 4.39-3.02-2.15-7.1-3.38-10.57-1.8-.96.44-.45 1.94.53 1.93 2.27-.03 4.25.05 6.36 1.05 1.46.7 2.73 1.72 3.83 2.9v.03c.02.84.58 1.32 1.22 1.44 2.18 2.92 3.6 6.46 4.56 9.94q.78 2.86 1.1 5.78a36 36 0 0 0-1.95-5.18c-.2-.43-.92-.13-.77.32a48 48 0 0 1 2.63 12.58c-1.4-6.61-4.42-12.93-9.06-17.78-5.52-5.74-14.25-8.81-21.54-5.57m-.78 33.14c4.28-5.66 8.49-11.49 11.51-17.93 1.82-3.87 3.1-8.7 1.3-12.59a22 22 0 0 1 8.25 6c5.88 6.89 8.42 16.36 8 25.29q-.1.43.03.78l-.06.11-.07.07-.16.2q-1.6.08-3.3.42c-18.57 3.75-28.1 22.15-41.57 33.89q4.05-5.76 8.6-11.08c3.97-4.61 8.48-8.76 12.25-13.54.13-.17-.04-.44-.24-.3-5.17 3.37-9.4 8.13-13.48 12.72q-3.33 3.75-6.44 7.66a96 96 0 0 1 17.89-24.2c7.8-7.66 19.3-15.93 19.22-28.1 0-.37-.59-.46-.67-.08-3.07 13.26-14.06 20.24-22.92 29.53a99 99 0 0 0-18.2 27c.16-6.77 4.28-13.62 7.76-19.06 3.74-5.85 8.11-11.26 12.3-16.8m-44.13 95.33a106 106 0 0 1 25.1-24.12c-1.57 10.02-6.58 19.17-13.32 26.7-5.8 6.48-12.63 11.25-19.66 15.98l4.47-5.4q3.8-4.55 7.58-9.11c5.01-6.04 10.15-12.03 14.68-18.44.45-.64-.54-1.33-1.05-.8-5.66 5.64-10.78 11.84-15.98 17.9-3.93 4.6-8.08 9.11-11.92 13.82 2.7-5.94 6.37-11.51 10.1-16.55zm-23.83-29.16c2.04 5.75 4.22 11.45 6.06 17.26a70 70 0 0 1 2.48 9.36c-4-8.01-8.4-15.78-11.25-24.36a72 72 0 0 1-3.45-15.65 52 52 0 0 1-.03-8.08c1.38 7.3 3.7 14.43 6.2 21.47M244.5 151c-.17 3.22.07 6.51.42 9.54a75 75 0 0 0 3.42 15.27 111 111 0 0 0 13.96 27.94l-.07.29A52.9 52.9 0 0 1 244.49 151m71.32 114.74q-.94 14.18-4.3 28c-2.13 8.65-5.14 16.86-8.46 25.05l-.16-.48q-.03-.68-.01-1.35.08-2.42.3-4.84.48-5.01 1.6-9.92c1.56-6.76 4.03-13.04 6.8-19.37.36-.85-.76-1.55-1.28-.74-3.75 5.83-6.32 12.7-7.97 19.44a79 79 0 0 0-1.45 7.5c-1.51-15.28 5.2-30.84 14.93-43.29m-40.42 22.8a264 264 0 0 1-16.57-9.9 217 217 0 0 1-15.14-10.99c-.63-.5-1.27-1.15-1.96-1.7 11.03 4.17 22.57 8.15 30.55 16.16q1.5 3.25 3.11 6.43m-44.27-26.95c2.44 1.14 5 2.19 7.6 3.2-.34.18-.57.53-.4.95.72 1.72 2.53 2.69 3.98 3.82q2.28 1.77 4.6 3.5 5.01 3.67 10.2 7.06a176 176 0 0 0 19.83 11.38l.74 1.38a70 70 0 0 1-46.55-31.3m-100.47 39.26c-3.71 5.43-1.73 12.18.7 17.66 3.46 7.8 7.21 15.44 9.66 23.64 1.6 5.31 3.75 13.1 1.8 18.86-.04-1.19-.27-2.4-.6-3.57-1.31-4.5-3.53-8.8-5.82-12.86-2.51-4.47-5.38-8.77-7.6-13.4-2.3-4.84-3.32-9.61-4.5-14.79-.2-.87-1.46-.62-1.5.2-.16 4.2 1.48 8.57 3.09 12.38 1.66 3.96 3.7 7.8 5.8 11.54 2.2 3.94 4.52 7.84 6.4 11.95 1.7 3.72 4.1 8.96 1.95 12.87l-.17.14c-1.77-10.79-9-19.15-15.19-27.86-7.1-10.03-12.34-22.21-5.09-33.62.2-.32-.28-.7-.52-.4-6.92 8.13-3.99 20.04.7 28.46 5.86 10.52 15.48 19.34 18.37 31.21-6.9-12.97-18.69-23.01-23.94-36.92-3.08-8.16-3.92-18.7 3.87-24.5 4.75-3.54 14.68-8.37 20.47-4.85a8.8 8.8 0 0 0-7.88 3.87m-19.52 5.69c-2.02-1.41-3.18-3.52-4-5.8a54 54 0 0 0 4.39 5.04zm29.66-10.6c-4.72-4.3-12.7-2.13-18.23.36a28 28 0 0 0-6.74 4.21l.58-1.28a26 26 0 0 0 2.01-6.95l.06-.6a14.3 14.3 0 0 1 7.34-3.88c1.48-.26 3.03-.2 4.5.12q1.15.25 2.23.7c.72.32 1.25.76 2.06.56.48-.1.83-.69.67-1.17-.32-.94-1.24-1.22-2.11-1.56q-1.22-.49-2.52-.72a15 15 0 0 0-5.26 0 12.7 12.7 0 0 0-6.71 3.6l.03-.86c.02-1.37-.08-2.82.4-4.14.75-2.07 2.85-3.12 4.89-3.57 4.58-1 9.8.88 13.04 4.15a13.5 13.5 0 0 1 3.76 11.05zm-.3-51.38c-3.45.98-5.6 3.92-6.9 7.13-1.66 4.11-2.34 8.75-2.97 13.12q-.5 3.45-.79 6.95c-.15 1.85-.58 4.2-.31 6.17a15 15 0 0 0-7.94.6c-.33-4.13-.13-8.28.64-12.35.83-4.36 2.41-8.46 3.97-12.6.1-.24-.26-.36-.39-.16-4.79 7.3-6.16 17.1-5.48 25.7q-.49.28-.95.6c-2.46 1.8-3 4.19-3.13 6.77a53.4 53.4 0 0 1 .57-33.34c2.19-6.18 5.83-11.72 12.54-13.39 3.3-.82 6.79-.5 9.88.9 2.02.9 3.55 2.27 5.09 3.7a9 9 0 0 0-3.83.2m-33.39 3.24c2.7-9.2 9.6-15.4 19.53-14.99 6.3.26 14.57 3.31 18.23 8.99-3.48-3.44-9.28-4.99-13.78-4.5-6.5.72-11.59 4.9-14.46 10.63-6.76 13.45-6.6 30.21-1 44q.14.33.38.51-.22 1.8-.66 3.58c-.44-.82-.9-1.64-1.29-2.48a56 56 0 0 1-2.1-5.22 70 70 0 0 1-2.68-10.6c-.06-.37-.67-.28-.63.08a51 51 0 0 0 2.5 10.93 57 57 0 0 0 1.95 4.94c.55 1.25 1.12 2.62 1.83 3.84l-.19.6c-10.45-14.49-12.61-33.23-7.63-50.3m-4.67 2.47q.12.51.42.77c-1.54 7.15-1.62 14.89-.88 21.55 1.14 10.29 4.89 20.22 11.67 28.1l.03.04q-.27.6-.56 1.19-.4.71-.77 1.45a57 57 0 0 1-7.1-9.4q-.96-3.74-1.76-7.51a128 128 0 0 1-2.87-23.99c-.09-5.2.24-10.4 1.03-15.5q.4 1.64.78 3.3m-17.67-14.6c2.54-4.24 7.63-6.38 10.17-10.13 1.88 5.45 3.78 10.9 5.38 16.43a93 93 0 0 0-1.81 23.16 134 134 0 0 0 2.71 21.1 79 79 0 0 1-2.25-5.7c-3.33-9.53-4.6-19.49-6.95-29.26-.13-.55-1.02-.43-.98.13.84 14.6 4.3 30.48 12.04 43.39.36 1.65.76 3.37 1.29 5.03-11.3-15.8-18.71-34-16.95-53.96.02-.24-.37-.29-.4-.06-2.77 17.4 3.07 34.12 12.19 48.73-7.49-9.45-13.14-20.2-15.63-32.27-1.6-7.84-3.16-19.32 1.18-26.59zm-2.48 33.99q.56 1.78 1.2 3.54-.92-1.83-1.8-3.7.3.14.6.16m-4.5-3.08q2.2 5.31 4.92 10.42l-.53-.8a129 129 0 0 1-6-10.58q.81.45 1.6.96m-33.88 6.37a11.5 11.5 0 0 1 4.35-7.19c6.75-5.35 16.38-5.13 24.37-1.86A134 134 0 0 0 86.8 286.9l-.24-.18a95 95 0 0 0-14.52-8.32c-4.4-2-9.5-4.6-14.34-5.03-.8-.07-1.02 1.07-.39 1.44 2.28 1.36 5.01 2.12 7.46 3.18q3.55 1.54 6.99 3.33c4.45 2.33 8.81 4.88 12.96 7.74a104 104 0 0 1 18.52 16.34 40 40 0 0 0-5.82-1.83q-.4-.23-.76-.46a54 54 0 0 1-4-2.66q-1-.69-2.01-1.36c-.43-.29-.92.37-.55.71a35 35 0 0 0 3.89 3.12 40 40 0 0 0-11.5 0l-.58.1a.7.7 0 0 0-.4-.22 49.5 49.5 0 0 1-20.27-8.54 85 85 0 0 1-14.04-12.72c-2.13-2.41-3.8-5.23-3.3-8.56zM53.22 304c-5.3.72-9.74 4.98-10.67 10.28-.46 2.6-.05 5.2 1.07 7.58q.76 1.62 1.94 2.78-.78-.3-1.52-.75a20 20 0 0 1-4.57-3.96 17.4 17.4 0 0 1-4.23-12.52 17 17 0 0 1 11.16-15.05c1.76-.66 3.91-.59 5.57-1.42q.87.78 1.77 1.52-1.16.28-2.28.66-2.4.8-4.6 2a26 26 0 0 0-7.97 6.6c-.15.19.09.45.27.27a33 33 0 0 1 8.12-5.88 29 29 0 0 1 7.74-2.62 69 69 0 0 0 5.3 3.89l.84.53a27 27 0 0 0-7.05.4c-5 .89-10.38 3.14-13.7 7.12-.27.33.08.9.49.63 4.16-2.7 8.35-4.95 13.32-5.71a28 28 0 0 1 11.08.62c1.1.3 2.17.84 3.31.93l.13-.02a34 34 0 0 0 8.24 2.26q-2.49.75-4.75 2c-3.43-.56-6.99-.98-10.36-.3-2.45-1.69-5.73-2.21-8.62-1.81zm15.1 28.1a46 46 0 0 1-4.93-3.81c-2.98-2.64-6.11-5.86-7.45-9.69-1.32-3.79.37-7.16 3.87-8.93q1.24-.6 2.53-.88a10.7 10.7 0 0 0-.62 12.71c.18.27.61.04.45-.26a10.25 10.25 0 0 1 2.04-12.73c1.47-.11 2.97-.03 4.45.15-2.66 2.52-4.7 6.3-3.8 9.98.24.95 1.82 1.02 2 0 .73-4.06 2.4-7.16 5.88-9.36a1.6 1.6 0 0 0 1.59-.88A30 30 0 0 1 85 305.78q2.93-.21 5.82.02-2.7.26-5.39.91c-.53.14-.29.89.23.81 4.23-.63 8.58-.7 12.84-.16-6.95.1-13.91 1.9-19.63 5.77-6.45 4.36-10.94 12.19-9.2 19.8q-.7-.4-1.38-.85zm48.54 23.76c-5.04-4.7-9.52-9.97-14.1-15.1-4.62-5.18-9.38-10.27-14.88-14.53-3.67-2.84-8.69-5.77-13.3-4.61a21.4 21.4 0 0 1 7.3-6.83c7.94-4.51 17.77-5.3 26.54-3.12h.07q.3.1.6.04l.16.15.09.13.14.15q-.3 2.05-.2 4.35c.93 18.47 16.43 30.95 25.3 46.15a147 147 0 0 1-9.15-10.44c-3.82-4.8-7.04-10.04-11.04-14.68-.12-.14-.4 0-.33.19 2.34 5.71 6.18 10.75 9.92 15.61a194 194 0 0 0 6.28 7.77 96 96 0 0 1-20.04-21.68c-6.13-9.16-12.1-22.4-24.2-24.62-.34-.05-.63.46-.26.63 12.53 5.5 17.31 17.86 24.83 28.33a99 99 0 0 0 22.86 22.76c-6.34-1.4-12.05-6.4-16.6-10.64m71.5 2.42c7.81 5.39 14.19 12.54 19.38 20.45a144 144 0 0 1 9.78 17.7q-9.98-13.38-19.04-27.37c-.89-1.37-3.09-.1-2.2 1.29a315 315 0 0 0 24.16 32.78 52.1 52.1 0 0 1-32.09-44.85zm-58.64 42.6 2.77-.41c-.56.64-.5 1.79.56 2.04a203 203 0 0 0 32.42 4.72q8.1.55 16.2.49c3.98-.04 8.2-.01 12.23-.54a54.5 54.5 0 0 1-64.19-6.3zm67.93 3.86c-5.25-.4-10.7.2-15.97.25q-7.8.1-15.59-.4a234 234 0 0 1-31.63-4.39 182 182 0 0 1 44.87-.3c4.15.5 8.3 1.4 12.44 2q3.36 1.16 6.78 2.16zm-15.88 70.71c2.6-.06 5.22-.08 7.82-.19l3.91-.19q.72-.03 1.45-.04v.16c-1.28.11-2.61.54-3.81.7-1.89.23-3.76.48-5.67.57-3.86.2-7.74-.07-11.53-.81zm-9.23 3.17c-.56-.39-2.45-1.53-2.37-2.4.09-.82 2.11-.61 2.99-.59-1.25.35-1.59 2.39-.07 2.68 4.08.77 8.23 1.08 12.37.84 2.09-.12 4.19-.33 6.22-.8l1.21-.25a17.5 17.5 0 0 1-20.34.51zm90.06 13.04a29 29 0 0 1-1.68 2.85c-.44.67-1 1.96-1.94 1.73-2-.47-2.56-3.6-2.53-5.28.04-2.36 1.03-4.59 2.13-6.62a47 47 0 0 1 6.26-8.94l.24-.26c-1.06 2.86-1.93 5.82-2.93 8.7q-.9 2.53-1.87 5.02c-.64 1.65-1.47 3.28-2 4.97-.48 1.52 1.64 2.18 2.4 1l.02.01c.88-1.65 1.46-3.53 2.11-5.28a146 146 0 0 0 3.07-9.27 29 29 0 0 1-.9 5.16 32 32 0 0 1-2.4 6.22zm2.58-109.92a101 101 0 0 1 35.76 18.11c2.77 2.18 5.28 4.6 7.82 7q-5.03-2.69-10.02-5.5a220 220 0 0 1-5.84-3.4c-1.92-1.15-3.77-2.52-5.76-3.52-1.27-.64-2.17 1.04-1.1 1.86 1.77 1.36 3.84 2.41 5.77 3.54a267 267 0 0 0 5.87 3.34q4.6 2.55 9.34 4.8a39 39 0 0 1-7.96-1.45 52 52 0 0 1-13.72-6.48c-7.64-5-14.09-11.52-20.15-18.3zm1.5 44.62c-5.3 4.33-10.6 8.96-16.97 11.68-10.14 4.33-21.93 1.97-30.01-5.2 9.45 1.26 18.79-2.07 27.32-6.22 9.95-4.83 19.38-10.56 30.34-12.17-7.4 4.51-14.48 9.56-22.02 13.84-4.27 2.42-8.75 4.46-13.56 5.5q-3.53.8-7.14.76c-2.5-.05-4.9-.84-7.36-.84-1.02 0-1.3 1.32-.5 1.85 3.59 2.36 9.33 1.82 13.36 1.2 4.88-.77 9.52-2.6 13.87-4.87 9.38-4.9 18.28-11.36 26.7-17.78l.8-.05.1-.03h.15q-7.56 6.15-15.1 12.33zm77.66 31.05c-.66.02-4.67-.11-3.64-1.54.44-.6 1.43-1.03 2.07-1.39q1.14-.66 2.3-1.21 2.58-1.25 5.33-1.97c1.85-.5 3.7-.73 5.54-.79a36 36 0 0 0-8.37 3.28c-1.04.57-2.35 1.14-3.18 2-.55.56 0 1.78.83 1.44 1.13-.47 2.15-1.34 3.23-1.94a46 46 0 0 1 6.68-3.09 25 25 0 0 1-5.19 3.68 13.5 13.5 0 0 1-5.6 1.54m59.07-44.22c34.21 3.44 69.78 13.89 96.26 36.54q7.03 12 12.76 24.67c9.91 21.99 17.57 46.05 18.17 70.32.22 9.1-.82 18.07-2.97 26.72-1.14-13.02-4.76-25.93-10.18-38.13a106 106 0 0 0-7.96-36.05c-9.3-22.22-26.28-40.56-46.31-53.62a147 147 0 0 0-49.87-20.46q-6.05-5.14-12.15-10.22l2.25.21zM524.55 586.9q.64-1.57 1.23-3.15l-.05 1.02zm.01 8.56-.1-2.4zm-.96-11.34q-.25-1.85-.57-3.68v-.03q-.26-1.6-.57-3.17l-.14-.7-.61-2.9-.22-.97q-.3-1.37-.65-2.75l-.27-1.09-.7-2.64-.32-1.16-.75-2.6-.35-1.15a116 116 0 0 0-1.15-3.57q-.45-1.39-.94-2.76v-.02.02a115 115 0 0 0 1.2-15.73q.38.96.73 1.93c4.33 11.7 7.1 24.28 7.48 36.84a106 106 0 0 1-2.17 6.14zm-158.98-261.5a203 203 0 0 1 11.7 68.07c-.54-1.63-1.28-3.23-1.83-4.82q-1.24-3.55-2.32-7.14-2.1-6.94-3.6-14a193 193 0 0 1-2.6-14.96c-.62-4.65-.62-9.5-1.59-14.1-.2-.96-1.46-.59-1.57.22-.6 5.01.26 10.47.86 15.47q.82 7.1 2.29 14.07a175 175 0 0 0 3.88 15.04c.44 1.43.86 3 1.32 4.58-12.62-18-15.58-41.73-6.54-62.44zm-22.25 47.64q-1.92-.34-3.81-.71a362 362 0 0 1-27.28-6.87c-8.55-2.56-16.77-5.75-25-8.99 16.81 3.43 34.5 4.15 50.03 10.92a570 570 0 0 0 5.08 4.74zm-71.98-21.02q1.66.64 3.35 1.2c-.08.5.07 1.02.59 1.29 11.21 5.66 23.63 9.7 35.64 13.3a246 246 0 0 0 27.94 6.84c2.1.4 4.3.94 6.48 1.12-27.22 7.35-56.32-1.91-74-23.76zm170.8 98.77q-3.06-2.9-6.16-5.73-2.08-1.9-4.17-3.78l-2.04-1.84a766 766 0 0 0-5.95-5.26q-.16-.13-.3-.27-3.16-2.75-6.34-5.47c42.07 10.07 81.52 38.64 94.71 80.93a104 104 0 0 1 4.29 21.92 150 150 0 0 0-32.08-43.17 140 140 0 0 0-20.73-15.91A436 436 0 0 0 441.2 448m26.3 27.06a143 143 0 0 1 48.07 59.23q.26 8.26-.7 16.46-.58-1.58-1.2-3.11c-10.6-26.95-27.05-50.94-46.17-72.58m57.13 123.06v-.55zm7.77-28.37q-1.9 5.39-4.36 10.52 0-1.54-.06-3.1a107 107 0 0 0 3.97-38.82c-1.87-24.04-9.99-47.54-20.22-69.23a264 264 0 0 0-8.23-16.01q2.72 2.54 5.3 5.28c27.5 29.2 36.79 73.5 23.6 111.37z"/> <path d="M390.42 420.07c-25.38-1.55-52.3 2.83-74.92 14.79a.7.7 0 0 0-.64-.23l-.18.04c-.47-.44-1.27-.52-1.65.2l-.12.23a27 27 0 0 0-7.9 4.08 84 84 0 0 0-3.93 3c-1.15.92-2.56 1.83-3.26 3.17a3.3 3.3 0 0 0 .48 3.76c1 1.13 2.6 1.47 4.05 1.27 3.05-.41 5.14-2.96 6.88-5.27a62 62 0 0 0 5.63-9.05q.2-.05.36-.12a.7.7 0 0 0 .4-.28c26.5-11.23 54.6-16.44 83.37-13.09q2.9.34 5.8.82l-2.52-2.13q-5.9-.82-11.83-1.2zm-82.66 23.5c-1.36 1.94-2.98 4.32-5.43 4.92-1.12.26-2.76.05-3.1-1.29-.28-1.24 1.17-2.2 1.98-2.87a56 56 0 0 1 8.69-6.15q-1.07.95-2.08 1.94-1.36 1.3-2.64 2.66l-1.3 1.41c-.44.48-.93.95-1.25 1.5-.52.87.62 1.6 1.32 1.01.48-.4.86-.97 1.27-1.44l1.21-1.36q1.25-1.35 2.53-2.64l.83-.78a95 95 0 0 1-2.03 3.07z"/> </g> <path fill="#f9f6e5" d="M365.35 342.21v-46.33q8.75 3.6 18.02 5.66a89 89 0 0 0 18.79 2.06q8.24 0 12.87-2.31a13.7 13.7 0 0 0 6.43-7.47q2.07-5.14 2.32-13.13.51-7.98.51-19.3 0-13.13-.25-21.88 0-8.75-.26-13.9t-1.03-7.98q-.51-2.83-1.55-4.12a9 9 0 0 0-2.06-2.31q-1.53-1.03-4.88-1.55-3.35-.77-10.56-.77-3.08 0-6.95.26-3.85 0-9 .26v-45.82H475v45.82q-4.89-.26-9-.26-3.87-.26-7.22-.26-7.2 0-10.55.77-3.09.51-4.89 1.55a15 15 0 0 0-2.32 2.31 17 17 0 0 0-1.54 4.12q-.51 2.84-.77 7.98t-.52 13.9v58.94q0 17-3.86 27.8-3.6 10.56-12.1 15.45-8.24 4.89-21.62 4.89-9.53 0-20.07-1.55-10.3-1.29-15.19-2.83m-16.45 3.6h-2.84q-1.28.26-2.57.26-11.32 0-20.08-4.37-8.5-4.38-13.13-11.59a37 37 0 0 1-14.41 10.3 74 74 0 0 1-17.76 4.89 94 94 0 0 1-15.44 1.54q-15.19 0-27.29-3.08-11.84-3.35-20.07-9.27-7.99-6.18-12.1-14.67a45 45 0 0 1-4.12-19.3q0-8.5 2.32-14.94a41 41 0 0 1 6.17-10.8q3.6-4.65 7.21-7.73 3.87-3.09 6.44-4.89 5.91-4.38 7.98-6.43 2.05-2.07 2.05-4.38t-2.05-4.38a133 133 0 0 0-7.98-6.94 54 54 0 0 1-12.1-13.39q-5.15-8.24-5.15-20.85 0-11.07 3.86-19.56a35.6 35.6 0 0 1 11.58-14.16q7.72-5.91 19.05-8.75 11.32-2.83 26.26-2.83 7.45 0 19.3 1.29 12.1 1.28 28.31 4.63v48.39q-16.47-4.89-29.6-6.18a193 193 0 0 0-22.65-1.54q-10.03 0-16.99 2.06t-10.55 6.18q-3.34 4.11-3.34 10.8 0 4.9 2.57 9.53 2.83 4.38 9 7.2 6.45 2.58 17.51 2.58h26.77q10.05-.26 25.22-.26 15.45-.25 38.61-.51v13.38q-7.71 0-12.87.26-5.14 0-8.49.51-3.09.53-5.15 1.8a7.6 7.6 0 0 0-3.6 3.35q-1.03 2.06-1.03 6.7v9.26q.26 3.35.77 5.66a17 17 0 0 0 1.29 3.87 42 42 0 0 0 1.54 2.83q2.83 3.86 8.5 5.66a50 50 0 0 0 13.12 1.54h2.83q1.54 0 3.1-.25zM266.26 300q12.36 0 20.08-1.29 7.71-1.28 11.58-3.86a10 10 0 0 0 2.83-2.32 9 9 0 0 0 1.8-3.6q.52-2.06.77-5.4.26-3.36.26-8.24 0-5.92-1.03-9.53-.76-3.6-3.6-5.14-3.35-2.06-11.07-2.58a202 202 0 0 0-19.82-.77q-12.87 0-22.13 2.32-9.27 2.06-14.42 6.95-4.89 4.62-4.89 12.35 0 8.24 4.63 12.87 4.64 4.38 13.39 6.44 9 1.8 21.62 1.8M52 343.76q.25-22.65.52-36.81.25-14.41.25-23.17.26-8.75.26-13.64v-32.95q0-4.88-.26-13.64 0-8.75-.26-22.9 0-14.43-.25-37.07h55.34q5.66 20.59 9.78 35.78a2931 2931 0 0 0 7.2 25.74q3.36 10.55 5.41 17.5t3.6 11.58q1.8 4.38 3.1 7.2a151 151 0 0 0 3.08 5.41q2.83 4.88 6.18 6.44 3.35 1.54 10.04 1.54 5.66 0 8.23-.77a7.8 7.8 0 0 0 4.12-2.83 9 9 0 0 0 1.55-3.86q.77-2.83 1.03-7.72.25-4.89.25-12.87 0-7.2-.25-16.73 0-9.78-.52-20.85-.26-11.07-.77-22.65-.26-11.84-.77-22.91h17.5q-.25 22.65-.51 37.06 0 14.16-.26 22.91v60.23q.26 8.76.26 23.17.25 14.15.51 36.8h-41.44a2803 2803 0 0 0-12.1-41.95q-5.15-17.25-8.75-28.57a500 500 0 0 0-5.66-18.53 100 100 0 0 0-4.12-11.07 35 35 0 0 0-3.35-5.92 59 59 0 0 0-2.83-4.12 13.3 13.3 0 0 0-7.46-4.9q-4.37-1.28-12.87-1.28-9.27 0-12.87 1.29-3.35 1.03-4.63 4.63-1.04 2.06-1.55 4.9-.51 2.82-.77 7.46v47.87q.25 11.07.51 23.94.53 12.6 1.29 26.25z"/> </g> <defs> <clipPath id="a"> <path fill="#fff" d="M0 0h512v512H0z"/> </clipPath> <clipPath id="b"> <path fill="#fff" d="M32 32h512v584.06H32z"/> </clipPath> </defs> </svg>